<svg width="34" height="34" viewBox="0 0 34 34" fill="none" xmlns="http://www.w3.org/2000/svg">
<mask id="path-1-outside-1_9010_2" maskUnits="userSpaceOnUse" x="0" y="0" width="34" height="34" fill="black">
<rect fill="white" width="34" height="34"/>
<path fill-rule="evenodd" clip-rule="evenodd" d="M5.90965 5.90623L17 1.31246L28.0903 5.90623L32.6855 17L28.0903 28.0938L17 32.6875L5.90965 28.0938L1.31446 17L5.90965 5.90623ZM17 1L28.3137 5.68629L33 17L28.3137 28.3137L17 33L5.68629 28.3137L1 17L5.68629 5.68629L17 1ZM14.8508 13.8081C14.5505 13.7458 14.1805 13.7147 13.7407 13.7147C13.0215 13.7147 12.3722 13.853 11.7927 14.1298C11.2202 14.4066 10.7699 14.7975 10.4417 15.3026C10.1136 15.8007 9.94953 16.375 9.94953 17.0254C9.94953 17.6965 10.1101 18.2915 10.4313 18.8105C10.7524 19.3294 11.1993 19.7341 11.7718 20.0247C12.3513 20.3084 13.0076 20.4502 13.7407 20.4502C14.1526 20.4502 14.5156 20.4156 14.8298 20.3465C15.151 20.2773 15.4931 20.1562 15.8561 19.9832C15.898 19.9555 15.926 19.9313 15.9399 19.9106C15.9539 19.8898 15.9644 19.8379 15.9713 19.7549L16.0761 18.6133C16.0761 18.5925 16.0516 18.5821 16.0028 18.5821C15.9679 18.5821 15.9504 18.589 15.9504 18.6029C15.7619 19.1702 15.4896 19.5923 15.1335 19.869C14.7775 20.1458 14.3132 20.2842 13.7407 20.2842C13.2031 20.2842 12.7039 20.1389 12.2431 19.8483C11.7892 19.5577 11.4262 19.1633 11.1539 18.6652C10.8886 18.1601 10.7559 17.6066 10.7559 17.0046C10.7559 16.375 10.8781 15.8249 11.1225 15.3545C11.3668 14.877 11.7124 14.5103 12.1593 14.2543C12.6061 13.9983 13.1228 13.8703 13.7092 13.8703C14.8263 13.8703 15.5455 14.4481 15.8666 15.6035C15.8736 15.6243 15.8945 15.6347 15.9295 15.6347C15.9713 15.6277 15.9923 15.6139 15.9923 15.5932L15.8666 14.3581C15.8527 14.2751 15.8422 14.2232 15.8352 14.2025C15.8282 14.1817 15.8003 14.1575 15.7514 14.1298C15.4512 13.9776 15.151 13.8703 14.8508 13.8081ZM24.2086 20.253C24.2086 20.2115 24.1982 20.1908 24.1772 20.1908C23.9119 20.1908 23.7164 20.1735 23.5907 20.1389C23.4651 20.1043 23.3778 20.0386 23.3289 19.9417C23.287 19.8379 23.2661 19.6822 23.2661 19.4747V14.6695C23.2661 14.4619 23.287 14.3097 23.3289 14.2128C23.3778 14.116 23.4651 14.0502 23.5907 14.0156C23.7164 13.9741 23.9119 13.9534 24.1772 13.9534C24.1982 13.9534 24.2086 13.9326 24.2086 13.8911C24.2086 13.8496 24.1982 13.8288 24.1772 13.8288L23.6641 13.8392C23.3708 13.853 23.1299 13.86 22.9414 13.86C22.732 13.86 22.4737 13.853 22.1665 13.8392L21.6742 13.8288C21.6533 13.8288 21.6428 13.8496 21.6428 13.8911C21.6428 13.9326 21.6533 13.9534 21.6742 13.9534C21.9465 13.9534 22.1455 13.9741 22.2712 14.0156C22.3969 14.0572 22.4806 14.1298 22.5225 14.2336C22.5714 14.3305 22.5958 14.4827 22.5958 14.6902V16.8282H18.5743V14.6902C18.5743 14.4827 18.5953 14.3305 18.6371 14.2336C18.686 14.1298 18.7733 14.0572 18.899 14.0156C19.0316 13.9741 19.2306 13.9534 19.4959 13.9534C19.5099 13.9534 19.5169 13.9326 19.5169 13.8911C19.5169 13.8496 19.5099 13.8288 19.4959 13.8288L18.9932 13.8392C18.686 13.853 18.4312 13.86 18.2287 13.86C18.0542 13.86 17.8203 13.853 17.527 13.8392L16.9929 13.8288C16.979 13.8288 16.972 13.8496 16.972 13.8911C16.972 13.9326 16.979 13.9534 16.9929 13.9534C17.2582 13.9534 17.4537 13.9741 17.5794 14.0156C17.7051 14.0502 17.7889 14.116 17.8307 14.2128C17.8796 14.3097 17.9041 14.4619 17.9041 14.6695V19.4747C17.9041 19.6822 17.8796 19.8379 17.8307 19.9417C17.7889 20.0386 17.7016 20.1043 17.5689 20.1389C17.4433 20.1735 17.2478 20.1908 16.9825 20.1908C16.9685 20.1908 16.9615 20.2115 16.9615 20.253C16.9615 20.2946 16.9685 20.3153 16.9825 20.3153C17.2059 20.3153 17.3804 20.3119 17.5061 20.3049L18.2287 20.2946L18.9827 20.3049C19.1084 20.3119 19.2795 20.3153 19.4959 20.3153C19.5099 20.3153 19.5169 20.2946 19.5169 20.253C19.5169 20.2115 19.5099 20.1908 19.4959 20.1908C19.2236 20.1908 19.0246 20.1735 18.899 20.1389C18.7733 20.1043 18.686 20.0386 18.6371 19.9417C18.5953 19.8379 18.5743 19.6822 18.5743 19.4747V17.0461H22.5958V19.4747C22.5958 19.6822 22.5714 19.8379 22.5225 19.9417C22.4806 20.0386 22.3969 20.1043 22.2712 20.1389C22.1455 20.1735 21.9465 20.1908 21.6742 20.1908C21.6533 20.1908 21.6428 20.2115 21.6428 20.253C21.6428 20.2946 21.6533 20.3153 21.6742 20.3153C21.8837 20.3153 22.0478 20.3119 22.1665 20.3049L22.9414 20.2946L23.6641 20.3049C23.7897 20.3119 23.9608 20.3153 24.1772 20.3153C24.1982 20.3153 24.2086 20.2946 24.2086 20.253Z"/>
</mask>
<path fill-rule="evenodd" clip-rule="evenodd" d="M5.90965 5.90623L17 1.31246L28.0903 5.90623L32.6855 17L28.0903 28.0938L17 32.6875L5.90965 28.0938L1.31446 17L5.90965 5.90623ZM17 1L28.3137 5.68629L33 17L28.3137 28.3137L17 33L5.68629 28.3137L1 17L5.68629 5.68629L17 1ZM14.8508 13.8081C14.5505 13.7458 14.1805 13.7147 13.7407 13.7147C13.0215 13.7147 12.3722 13.853 11.7927 14.1298C11.2202 14.4066 10.7699 14.7975 10.4417 15.3026C10.1136 15.8007 9.94953 16.375 9.94953 17.0254C9.94953 17.6965 10.1101 18.2915 10.4313 18.8105C10.7524 19.3294 11.1993 19.7341 11.7718 20.0247C12.3513 20.3084 13.0076 20.4502 13.7407 20.4502C14.1526 20.4502 14.5156 20.4156 14.8298 20.3465C15.151 20.2773 15.4931 20.1562 15.8561 19.9832C15.898 19.9555 15.926 19.9313 15.9399 19.9106C15.9539 19.8898 15.9644 19.8379 15.9713 19.7549L16.0761 18.6133C16.0761 18.5925 16.0516 18.5821 16.0028 18.5821C15.9679 18.5821 15.9504 18.589 15.9504 18.6029C15.7619 19.1702 15.4896 19.5923 15.1335 19.869C14.7775 20.1458 14.3132 20.2842 13.7407 20.2842C13.2031 20.2842 12.7039 20.1389 12.2431 19.8483C11.7892 19.5577 11.4262 19.1633 11.1539 18.6652C10.8886 18.1601 10.7559 17.6066 10.7559 17.0046C10.7559 16.375 10.8781 15.8249 11.1225 15.3545C11.3668 14.877 11.7124 14.5103 12.1593 14.2543C12.6061 13.9983 13.1228 13.8703 13.7092 13.8703C14.8263 13.8703 15.5455 14.4481 15.8666 15.6035C15.8736 15.6243 15.8945 15.6347 15.9295 15.6347C15.9713 15.6277 15.9923 15.6139 15.9923 15.5932L15.8666 14.3581C15.8527 14.2751 15.8422 14.2232 15.8352 14.2025C15.8282 14.1817 15.8003 14.1575 15.7514 14.1298C15.4512 13.9776 15.151 13.8703 14.8508 13.8081ZM24.2086 20.253C24.2086 20.2115 24.1982 20.1908 24.1772 20.1908C23.9119 20.1908 23.7164 20.1735 23.5907 20.1389C23.4651 20.1043 23.3778 20.0386 23.3289 19.9417C23.287 19.8379 23.2661 19.6822 23.2661 19.4747V14.6695C23.2661 14.4619 23.287 14.3097 23.3289 14.2128C23.3778 14.116 23.4651 14.0502 23.5907 14.0156C23.7164 13.9741 23.9119 13.9534 24.1772 13.9534C24.1982 13.9534 24.2086 13.9326 24.2086 13.8911C24.2086 13.8496 24.1982 13.8288 24.1772 13.8288L23.6641 13.8392C23.3708 13.853 23.1299 13.86 22.9414 13.86C22.732 13.86 22.4737 13.853 22.1665 13.8392L21.6742 13.8288C21.6533 13.8288 21.6428 13.8496 21.6428 13.8911C21.6428 13.9326 21.6533 13.9534 21.6742 13.9534C21.9465 13.9534 22.1455 13.9741 22.2712 14.0156C22.3969 14.0572 22.4806 14.1298 22.5225 14.2336C22.5714 14.3305 22.5958 14.4827 22.5958 14.6902V16.8282H18.5743V14.6902C18.5743 14.4827 18.5953 14.3305 18.6371 14.2336C18.686 14.1298 18.7733 14.0572 18.899 14.0156C19.0316 13.9741 19.2306 13.9534 19.4959 13.9534C19.5099 13.9534 19.5169 13.9326 19.5169 13.8911C19.5169 13.8496 19.5099 13.8288 19.4959 13.8288L18.9932 13.8392C18.686 13.853 18.4312 13.86 18.2287 13.86C18.0542 13.86 17.8203 13.853 17.527 13.8392L16.9929 13.8288C16.979 13.8288 16.972 13.8496 16.972 13.8911C16.972 13.9326 16.979 13.9534 16.9929 13.9534C17.2582 13.9534 17.4537 13.9741 17.5794 14.0156C17.7051 14.0502 17.7889 14.116 17.8307 14.2128C17.8796 14.3097 17.9041 14.4619 17.9041 14.6695V19.4747C17.9041 19.6822 17.8796 19.8379 17.8307 19.9417C17.7889 20.0386 17.7016 20.1043 17.5689 20.1389C17.4433 20.1735 17.2478 20.1908 16.9825 20.1908C16.9685 20.1908 16.9615 20.2115 16.9615 20.253C16.9615 20.2946 16.9685 20.3153 16.9825 20.3153C17.2059 20.3153 17.3804 20.3119 17.5061 20.3049L18.2287 20.2946L18.9827 20.3049C19.1084 20.3119 19.2795 20.3153 19.4959 20.3153C19.5099 20.3153 19.5169 20.2946 19.5169 20.253C19.5169 20.2115 19.5099 20.1908 19.4959 20.1908C19.2236 20.1908 19.0246 20.1735 18.899 20.1389C18.7733 20.1043 18.686 20.0386 18.6371 19.9417C18.5953 19.8379 18.5743 19.6822 18.5743 19.4747V17.0461H22.5958V19.4747C22.5958 19.6822 22.5714 19.8379 22.5225 19.9417C22.4806 20.0386 22.3969 20.1043 22.2712 20.1389C22.1455 20.1735 21.9465 20.1908 21.6742 20.1908C21.6533 20.1908 21.6428 20.2115 21.6428 20.253C21.6428 20.2946 21.6533 20.3153 21.6742 20.3153C21.8837 20.3153 22.0478 20.3119 22.1665 20.3049L22.9414 20.2946L23.6641 20.3049C23.7897 20.3119 23.9608 20.3153 24.1772 20.3153C24.1982 20.3153 24.2086 20.2946 24.2086 20.253Z" fill="#A87B62"/>
<path fill-rule="evenodd" clip-rule="evenodd" d="M5.90965 5.90623L17 1.31246L28.0903 5.90623L32.6855 17L28.0903 28.0938L17 32.6875L5.90965 28.0938L1.31446 17L5.90965 5.90623ZM17 1L28.3137 5.68629L33 17L28.3137 28.3137L17 33L5.68629 28.3137L1 17L5.68629 5.68629L17 1ZM14.8508 13.8081C14.5505 13.7458 14.1805 13.7147 13.7407 13.7147C13.0215 13.7147 12.3722 13.853 11.7927 14.1298C11.2202 14.4066 10.7699 14.7975 10.4417 15.3026C10.1136 15.8007 9.94953 16.375 9.94953 17.0254C9.94953 17.6965 10.1101 18.2915 10.4313 18.8105C10.7524 19.3294 11.1993 19.7341 11.7718 20.0247C12.3513 20.3084 13.0076 20.4502 13.7407 20.4502C14.1526 20.4502 14.5156 20.4156 14.8298 20.3465C15.151 20.2773 15.4931 20.1562 15.8561 19.9832C15.898 19.9555 15.926 19.9313 15.9399 19.9106C15.9539 19.8898 15.9644 19.8379 15.9713 19.7549L16.0761 18.6133C16.0761 18.5925 16.0516 18.5821 16.0028 18.5821C15.9679 18.5821 15.9504 18.589 15.9504 18.6029C15.7619 19.1702 15.4896 19.5923 15.1335 19.869C14.7775 20.1458 14.3132 20.2842 13.7407 20.2842C13.2031 20.2842 12.7039 20.1389 12.2431 19.8483C11.7892 19.5577 11.4262 19.1633 11.1539 18.6652C10.8886 18.1601 10.7559 17.6066 10.7559 17.0046C10.7559 16.375 10.8781 15.8249 11.1225 15.3545C11.3668 14.877 11.7124 14.5103 12.1593 14.2543C12.6061 13.9983 13.1228 13.8703 13.7092 13.8703C14.8263 13.8703 15.5455 14.4481 15.8666 15.6035C15.8736 15.6243 15.8945 15.6347 15.9295 15.6347C15.9713 15.6277 15.9923 15.6139 15.9923 15.5932L15.8666 14.3581C15.8527 14.2751 15.8422 14.2232 15.8352 14.2025C15.8282 14.1817 15.8003 14.1575 15.7514 14.1298C15.4512 13.9776 15.151 13.8703 14.8508 13.8081ZM24.2086 20.253C24.2086 20.2115 24.1982 20.1908 24.1772 20.1908C23.9119 20.1908 23.7164 20.1735 23.5907 20.1389C23.4651 20.1043 23.3778 20.0386 23.3289 19.9417C23.287 19.8379 23.2661 19.6822 23.2661 19.4747V14.6695C23.2661 14.4619 23.287 14.3097 23.3289 14.2128C23.3778 14.116 23.4651 14.0502 23.5907 14.0156C23.7164 13.9741 23.9119 13.9534 24.1772 13.9534C24.1982 13.9534 24.2086 13.9326 24.2086 13.8911C24.2086 13.8496 24.1982 13.8288 24.1772 13.8288L23.6641 13.8392C23.3708 13.853 23.1299 13.86 22.9414 13.86C22.732 13.86 22.4737 13.853 22.1665 13.8392L21.6742 13.8288C21.6533 13.8288 21.6428 13.8496 21.6428 13.8911C21.6428 13.9326 21.6533 13.9534 21.6742 13.9534C21.9465 13.9534 22.1455 13.9741 22.2712 14.0156C22.3969 14.0572 22.4806 14.1298 22.5225 14.2336C22.5714 14.3305 22.5958 14.4827 22.5958 14.6902V16.8282H18.5743V14.6902C18.5743 14.4827 18.5953 14.3305 18.6371 14.2336C18.686 14.1298 18.7733 14.0572 18.899 14.0156C19.0316 13.9741 19.2306 13.9534 19.4959 13.9534C19.5099 13.9534 19.5169 13.9326 19.5169 13.8911C19.5169 13.8496 19.5099 13.8288 19.4959 13.8288L18.9932 13.8392C18.686 13.853 18.4312 13.86 18.2287 13.86C18.0542 13.86 17.8203 13.853 17.527 13.8392L16.9929 13.8288C16.979 13.8288 16.972 13.8496 16.972 13.8911C16.972 13.9326 16.979 13.9534 16.9929 13.9534C17.2582 13.9534 17.4537 13.9741 17.5794 14.0156C17.7051 14.0502 17.7889 14.116 17.8307 14.2128C17.8796 14.3097 17.9041 14.4619 17.9041 14.6695V19.4747C17.9041 19.6822 17.8796 19.8379 17.8307 19.9417C17.7889 20.0386 17.7016 20.1043 17.5689 20.1389C17.4433 20.1735 17.2478 20.1908 16.9825 20.1908C16.9685 20.1908 16.9615 20.2115 16.9615 20.253C16.9615 20.2946 16.9685 20.3153 16.9825 20.3153C17.2059 20.3153 17.3804 20.3119 17.5061 20.3049L18.2287 20.2946L18.9827 20.3049C19.1084 20.3119 19.2795 20.3153 19.4959 20.3153C19.5099 20.3153 19.5169 20.2946 19.5169 20.253C19.5169 20.2115 19.5099 20.1908 19.4959 20.1908C19.2236 20.1908 19.0246 20.1735 18.899 20.1389C18.7733 20.1043 18.686 20.0386 18.6371 19.9417C18.5953 19.8379 18.5743 19.6822 18.5743 19.4747V17.0461H22.5958V19.4747C22.5958 19.6822 22.5714 19.8379 22.5225 19.9417C22.4806 20.0386 22.3969 20.1043 22.2712 20.1389C22.1455 20.1735 21.9465 20.1908 21.6742 20.1908C21.6533 20.1908 21.6428 20.2115 21.6428 20.253C21.6428 20.2946 21.6533 20.3153 21.6742 20.3153C21.8837 20.3153 22.0478 20.3119 22.1665 20.3049L22.9414 20.2946L23.6641 20.3049C23.7897 20.3119 23.9608 20.3153 24.1772 20.3153C24.1982 20.3153 24.2086 20.2946 24.2086 20.253Z" stroke="#A87B62" mask="url(#path-1-outside-1_9010_2)"/>
</svg>
